<?xml version="1.0" encoding="UTF-8"?>
<svg xmlns="http://www.w3.org/2000/svg" style="display: none;">
<symbol id="chevron-right" viewBox="0 0 320 512">
<path d="M299.3 244.7c6.2 6.2 6.2 16.4 0 22.6l-192 192c-6.2 6.2-16.4 6.2-22.6 0s-6.2-16.4 0-22.6L265.4 256 84.7 75.3c-6.2-6.2-6.2-16.4 0-22.6s16.4-6.2 22.6 0l192 192z"/>
</symbol>
<symbol id="chevron-up" viewBox="0 0 512 512">
<path d="M244.7 116.7c6.2-6.2 16.4-6.2 22.6 0l192 192c6.2 6.2 6.2 16.4 0 22.6s-16.4 6.2-22.6 0L256 150.6 75.3 331.3c-6.2 6.2-16.4 6.2-22.6 0s-6.2-16.4 0-22.6l192-192z"/>
</symbol>
<symbol id="chevron-down" viewBox="0 0 512 512">
<path d="M267.3 395.3c-6.2 6.2-16.4 6.2-22.6 0l-192-192c-6.2-6.2-6.2-16.4 0-22.6s16.4-6.2 22.6 0L256 361.4 436.7 180.7c6.2-6.2 16.4-6.2 22.6 0s6.2 16.4 0 22.6l-192 192z"/>
</symbol>
<symbol id="chevron-left" viewBox="0 0 320 512">
<path d="M20.7 267.3c-6.2-6.2-6.2-16.4 0-22.6l192-192c6.2-6.2 16.4-6.2 22.6 0s6.2 16.4 0 22.6L54.6 256 235.3 436.7c6.2 6.2 6.2 16.4 0 22.6s-16.4 6.2-22.6 0l-192-192z"/>
</symbol>
</svg>